HIERARCHY
ROOT Hips
{
	OFFSET -3.958830 18.904000 13.208200
	CHANNELS 6 Xposition Yposition Zposition Zrotation Yrotation Xrotation 
	JOINT LHipJoint
	{
		OFFSET 0.000000 0.000000 0.000000
		CHANNELS 3 Zrotation Yrotation Xrotation
		JOINT LeftUpLeg
		{
			OFFSET 1.800000 -1.400000 0.085000
			CHANNELS 3 Zrotation Yrotation Xrotation
			JOINT LeftLeg
			{
				OFFSET 2.215000 -6.000000 0.000000
				CHANNELS 3 Zrotation Yrotation Xrotation
				JOINT LeftFoot
				{
					OFFSET 2.500000 -6.900000 0.000000
					CHANNELS 3 Zrotation Yrotation Xrotation
					JOINT LeftToeBase
					{
						OFFSET 0.200000 -0.500000 1.950000
						CHANNELS 3 Zrotation Yrotation Xrotation
						End Site
						{
							OFFSET 0.000000 0.000000 0.000000
						}
					}
				}
			}
		}
	}
	JOINT RHipJoint
	{
		OFFSET 0.000000 0.000000 0.000000
		CHANNELS 3 Zrotation Yrotation Xrotation
		JOINT RightUpLeg
		{
			OFFSET -1.800000 -1.400000 0.085000
			CHANNELS 3 Zrotation Yrotation Xrotation
			JOINT RightLeg
			{
				OFFSET -2.215000 -6.000000 0.000000
				CHANNELS 3 Zrotation Yrotation Xrotation
				JOINT RightFoot
				{
					OFFSET -2.500000 -6.900000 0.000000
					CHANNELS 3 Zrotation Yrotation Xrotation
					JOINT RightToeBase
					{
						OFFSET -0.200000 -0.500000 1.950000
						CHANNELS 3 Zrotation Yrotation Xrotation
						End Site
						{
							OFFSET 0.000000 0.000000 0.000000
						}
					}
				}
			}
		}
	}
	JOINT LowerBack
	{
		OFFSET 0.000000 0.000000 0.000000
		CHANNELS 3 Zrotation Yrotation Xrotation
		JOINT Spine
		{
			OFFSET -0.087000 1.940000 -0.288900
			CHANNELS 3 Zrotation Yrotation Xrotation
			JOINT Spine1
			{
				OFFSET 0.000000 1.950000 0.060000
				CHANNELS 3 Zrotation Yrotation Xrotation
				JOINT Neck
				{
					OFFSET 0.000000 0.000000 0.000000
					CHANNELS 3 Zrotation Yrotation Xrotation
					JOINT Neck1
					{
						OFFSET 0.000000 1.600000 0.340000
						CHANNELS 3 Zrotation Yrotation Xrotation
						JOINT Head
						{
							OFFSET 0.000000 1.667000 -0.240000
							CHANNELS 3 Zrotation Yrotation Xrotation
							End Site
							{
								OFFSET 0.000000 0.000000 0.000000
							}
						}
					}
				}
				JOINT LeftShoulder
				{
					OFFSET 0.000000 0.000000 0.000000
					CHANNELS 3 Zrotation Yrotation Xrotation
					JOINT LeftArm
					{
						OFFSET 2.700000 1.550000 -0.730000
						CHANNELS 3 Zrotation Yrotation Xrotation
						JOINT LeftForeArm
						{
							OFFSET 5.450000 0.000000 0.000000
							CHANNELS 3 Zrotation Yrotation Xrotation
							JOINT LeftHand
							{
								OFFSET 3.450000 0.000000 0.000000
								CHANNELS 3 Zrotation Yrotation Xrotation
								JOINT LeftHandIndex1
								{
									OFFSET 0.750000 0.000000 0.000000
									CHANNELS 3 Zrotation Yrotation Xrotation
									End Site
									{
										OFFSET 0.000000 0.000000 0.000000
									}
								}
							}
						}
					}
				}
				JOINT RightShoulder
				{
					OFFSET 0.000000 0.000000 0.000000
					CHANNELS 3 Zrotation Yrotation Xrotation
					JOINT RightArm
					{
						OFFSET -2.700000 1.550000 -0.730000
						CHANNELS 3 Zrotation Yrotation Xrotation
						JOINT RightForeArm
						{
							OFFSET -5.450000 0.000000 0.000000
							CHANNELS 3 Zrotation Yrotation Xrotation
							JOINT RightHand
							{
								OFFSET -3.450000 0.000000 0.000000
								CHANNELS 3 Zrotation Yrotation Xrotation
								JOINT RightHandIndex1
								{
									OFFSET -0.750000 0.000000 0.000000
									CHANNELS 3 Zrotation Yrotation Xrotation
									End Site
									{
										OFFSET 0.000000 0.000000 0.000000
									}
								}
							}
						}
					}
				}
			}
		}
	}
}
MOTION
Frames: 6
Frame Time: 0.016667
-0.352340 17.229270 -1.802580 -2.080303 5.321693 -13.323509 -15.463196 12.793535 4.395841 2.544680 -11.109709 -28.618566 2.430170 10.206807 67.215536 0.806900 12.275222 0.498516 -0.169700 -0.529700 -0.335290 18.149306 -9.388568 3.122495 -1.488007 7.219864 -25.842764 2.558353 -14.655015 63.815649 -2.083481 -10.180260 0.823000 -0.437580 0.845720 0.819080 -3.063194 -3.760730 -8.828002 7.412425 -3.990512 48.750749 -2.609094 1.271397 3.151554 1.736094 -2.316345 -14.582066 -14.473083 3.440261 56.647537 5.709960 -4.453760 -24.887030 8.347102 -33.936525 -1.372755 25.843919 -31.868571 -10.862845 11.248732 -45.378040 -2.217471 -3.960982 2.852648 1.255270 0.138360 0.412480 0.257010 -11.416535 36.427567 8.685860 -14.014228 5.268653 -17.342951 -21.605729 72.820378 -9.691224 1.335840 -0.948502 -0.332910 0.574810 0.627250 0.091790 
-0.327000 17.123370 -1.834770 -2.236764 4.645229 -13.534571 -15.387003 12.710012 4.372010 0.682796 -11.475678 -27.081355 2.941893 9.674908 67.942757 0.879010 12.300923 0.537998 -0.194470 -0.540510 -0.362750 18.229128 -9.485282 3.153132 0.311978 7.136247 -25.361784 1.717093 -14.332127 64.499126 -2.099094 -10.207653 0.852254 -0.444080 0.877850 0.766060 -3.280438 -3.439630 -8.770939 9.504737 -5.767579 49.540676 -4.334545 0.230364 3.532686 2.059894 -3.146495 -15.391780 -16.531041 4.338067 56.673279 6.217180 -5.194290 -23.270590 9.637635 -34.433139 -0.781017 27.078042 -29.310215 -10.847608 10.298043 -40.097495 -1.537502 -3.971594 2.811503 1.230290 0.138860 0.387460 0.268300 -13.408276 37.081146 8.105701 -16.640239 5.505731 -17.488608 -20.566241 69.360599 -7.516664 1.369233 -1.025053 -0.350160 0.625900 0.626950 0.114820 
-0.317030 16.999950 -1.858240 -2.269806 3.992976 -13.568318 -15.378853 12.675230 4.434856 -0.098729 -12.014561 -26.353035 2.441748 9.930797 68.637669 0.939498 12.482033 0.508950 -0.226140 -0.589100 -0.375110 18.249584 -9.499502 3.124037 2.158510 6.846125 -25.402729 -1.080848 -13.012217 66.277126 -2.102956 -10.293859 0.836684 -0.458200 0.900020 0.754570 -3.314750 -3.405716 -8.758577 10.136091 -6.665603 49.526021 -4.825417 -0.524722 4.541818 2.336839 -2.954780 -16.137137 -15.811594 4.331584 56.370739 4.768950 -5.125840 -20.368890 10.699262 -34.993882 -0.153220 27.901245 -26.237236 -10.584779 9.762039 -35.103890 -1.186487 -4.017506 2.811192 1.202790 0.165940 0.350160 0.262000 -15.140913 37.321535 7.650542 -17.395820 5.976186 -18.191488 -25.732647 66.375060 -9.431469 1.373896 -1.012196 -0.368080 0.622560 0.641010 0.111350 
-0.299360 16.894410 -1.869880 -2.635379 2.901178 -13.982283 -15.343299 12.632128 4.438027 -0.197988 -12.172099 -25.754408 2.152430 10.292392 69.583629 1.037840 12.678606 0.482125 -0.235890 -0.597400 -0.382750 18.289308 -9.550697 3.126995 3.489607 6.786246 -25.196917 -3.349296 -11.899155 67.987366 -2.143237 -10.426251 0.816626 -0.467420 0.902960 0.742580 -3.409973 -3.239871 -8.737966 11.675386 -7.733097 50.098627 -5.979992 -0.955856 4.783824 2.780864 -2.979834 -16.569737 -15.550302 4.169622 55.251320 3.842540 -5.176240 -19.029100 10.432697 -35.343561 0.652959 28.779815 -24.080777 -10.556446 10.146379 -30.590494 -1.180711 -4.045549 2.757986 1.175860 0.171120 0.339030 0.275230 -15.883556 37.621484 7.165147 -18.612490 6.106559 -18.849000 -30.959935 64.626843 -11.497973 1.419738 -0.995196 -0.364350 0.615860 0.623960 0.122790 
-0.285760 16.813510 -1.860960 -2.453788 0.047059 -14.154122 -15.362504 12.631317 4.443306 0.123464 -12.005669 -25.667225 1.019162 11.579838 70.313595 1.176636 12.954890 0.421695 -0.206240 -0.536130 -0.390910 18.284498 -9.465546 3.170999 4.758459 7.181690 -25.246498 -5.887792 -10.286540 70.137178 -2.198146 -10.622010 0.788194 -0.442270 0.896730 0.738210 -3.343640 -3.335254 -8.758954 11.545371 -7.153450 50.237905 -5.764482 -0.567641 5.721435 3.010533 -3.294298 -16.702789 -15.534353 4.258320 53.112139 3.014040 -4.975930 -18.183720 10.454369 -35.122866 1.469020 27.549275 -21.682987 -10.097030 12.115972 -26.527611 -1.754018 -4.086488 2.753888 1.111530 0.183500 0.330480 0.306380 -16.366020 38.121067 6.408403 -19.199203 7.411157 -19.949755 -40.886233 63.641347 -16.698696 1.475901 -0.900104 -0.327380 0.592790 0.580200 0.153240 
-0.274370 16.780840 -1.816410 -2.255519 -5.473386 -14.085192 -15.417204 12.715929 4.330500 2.044139 -10.691369 -25.429485 -1.754925 14.343388 69.537425 1.289488 13.268819 0.334238 -0.151990 -0.452060 -0.355890 18.241325 -9.244649 3.354343 6.679590 8.466571 -25.042623 -8.472968 -7.866895 71.587072 -2.247786 -10.662439 0.798758 -0.401930 0.862920 0.724470 -3.147522 -3.621652 -8.824720 10.273162 -5.124900 49.649429 -4.626586 0.800296 6.708511 3.351825 -3.554451 -16.858044 -15.153155 4.781042 52.251519 1.634170 -3.893230 -18.141950 9.657299 -34.748125 2.633981 25.017680 -19.182827 -9.068394 13.033479 -24.595232 -1.984116 -4.050811 2.757549 1.080960 0.173960 0.347590 0.335030 -16.056508 39.085650 5.461954 -18.732741 11.075898 -20.522229 -46.793910 62.453032 -20.242927 1.565686 -0.817370 -0.302570 0.581880 0.517280 0.164610 
